<?xml version="1.0" standalone="no"?>
<!DOCTYPE svg PUBLIC "-//W3C//DTD SVG 20010904//EN"
 "http://www.w3.org/TR/2001/REC-SVG-20010904/DTD/svg10.dtd">
<svg version="1.0" xmlns="http://www.w3.org/2000/svg"
 width="700.000000pt" height="700.000000pt" viewBox="0 0 700.000000 700.000000"
 preserveAspectRatio="xMidYMid meet">
<metadata>
Created by potrace 1.14, written by Peter Selinger 2001-2017
</metadata>
<g transform="translate(0.000000,700.000000) scale(0.100000,-0.100000)"
fill="#000000" stroke="none">
<path d="M2431 6296 c8 -8 1057 -346 1073 -346 12 0 1026 326 1071 344 6 3
-476 5 -1069 5 -594 1 -1077 -1 -1075 -3z"/>
<path d="M1272 4033 l3 -2167 368 -223 c202 -123 370 -223 373 -223 2 0 4 308
4 684 0 642 1 684 18 691 27 10 1418 535 2017 760 297 112 780 294 1072 404
293 110 543 207 557 216 58 39 56 -7 56 1054 l0 971 -376 0 -376 0 -542 -176
c-297 -96 -603 -195 -678 -220 l-138 -46 0 -786 0 -787 -125 -46 -125 -47 0
833 0 833 -107 36 c-60 19 -365 118 -680 221 l-572 185 -376 0 -375 0 2 -2167z
m1084 1362 l324 -106 -2 -731 -3 -731 -275 -104 c-151 -57 -299 -112 -327
-123 l-53 -20 0 960 c0 528 3 960 6 960 4 0 152 -47 330 -105z m2624 -297 l0
-403 -258 -97 c-141 -54 -287 -109 -325 -123 l-67 -25 2 421 3 421 315 103
c173 57 318 104 323 104 4 1 7 -180 7 -401z"/>
<path d="M5130 3714 c-14 -3 -53 -14 -87 -25 l-63 -21 0 -756 0 -757 -319
-192 c-175 -106 -321 -193 -325 -193 -3 0 -6 371 -6 825 0 454 -2 825 -4 825
-3 0 -260 -97 -628 -236 l-68 -26 0 -1280 c0 -1069 2 -1279 13 -1275 11 4
1480 892 1992 1204 l100 61 3 694 c1 470 -1 710 -9 746 -14 68 -68 175 -119
233 -88 103 -228 168 -370 174 -47 2 -96 1 -110 -1z"/>
<path d="M3020 2930 l-335 -127 -3 -894 -2 -894 333 -202 c183 -111 341 -205
350 -209 16 -6 17 74 17 1225 0 979 -3 1231 -12 1230 -7 -1 -164 -59 -348
-129z"/>
</g>
</svg>
